TITLE "123.400, flac"
FILE "123.400.flac" WAVE

TRACK 01 AUDIO
TITLE "2020.02.06-06:00.26:465330"
INDEX 01 01:26:10

TRACK 02 AUDIO
TITLE "2020.02.06-06:00.55:564013"
INDEX 00 01:44:67
INDEX 01 01:55:18

TRACK 03 AUDIO
TITLE "2020.02.06-06:01.02:904227"
INDEX 00 02:00:46
INDEX 01 02:02:43

TRACK 04 AUDIO
TITLE "2020.02.06-06:03.40:684048"
INDEX 00 02:11:19
INDEX 01 04:40:27

TRACK 05 AUDIO
TITLE "2020.02.06-06:03.51:564046"
INDEX 00 04:49:55
INDEX 01 04:51:18

TRACK 06 AUDIO
TITLE "2020.02.06-06:03.57:785420"
INDEX 00 04:55:48
INDEX 01 04:57:34

TRACK 07 AUDIO
TITLE "2020.02.06-06:04.35:744019"
INDEX 00 05:08:73
INDEX 01 05:35:31

TRACK 08 AUDIO
TITLE "2020.02.06-06:04.54:785075"
INDEX 00 05:44:16
INDEX 01 05:54:34

TRACK 09 AUDIO
TITLE "2020.02.06-06:05.24:364289"
INDEX 00 06:10:22
INDEX 01 06:24:03

TRACK 10 AUDIO
TITLE "2020.02.06-06:05.36:766232"
INDEX 00 06:34:46
INDEX 01 06:36:33

TRACK 11 AUDIO
TITLE "2020.02.06-06:06.02:467832"
INDEX 00 06:43:06
INDEX 01 07:02:11

TRACK 12 AUDIO
TITLE "2020.02.06-06:06.52:065030"
INDEX 00 07:11:41
INDEX 01 07:51:55

TRACK 13 AUDIO
TITLE "2020.02.06-06:08.05:544041"
INDEX 00 08:00:09
INDEX 01 09:05:16

TRACK 14 AUDIO
TITLE "2020.02.06-06:08.17:384079"
INDEX 00 09:11:21
INDEX 01 09:17:04

TRACK 15 AUDIO
TITLE "2020.02.06-06:08.27:164077"
INDEX 00 09:25:66
INDEX 01 09:26:63

TRACK 16 AUDIO
TITLE "2020.02.06-06:08.36:664158"
INDEX 00 09:34:73
INDEX 01 09:36:25

TRACK 17 AUDIO
TITLE "2020.02.06-06:08.47:164119"
INDEX 00 09:45:61
INDEX 01 09:46:63

TRACK 18 AUDIO
TITLE "2020.02.06-06:09.09:204266"
INDEX 00 10:02:03
INDEX 01 10:08:66

TRACK 19 AUDIO
TITLE "2020.02.06-06:09.25:964071"
INDEX 00 10:17:00
INDEX 01 10:25:48

TRACK 20 AUDIO
TITLE "2020.02.06-06:09.36:364251"
INDEX 00 10:34:21
INDEX 01 10:36:03

TRACK 21 AUDIO
TITLE "2020.02.06-06:09.40:004168"
INDEX 00 10:38:48
INDEX 01 10:39:51

TRACK 22 AUDIO
TITLE "2020.02.06-06:09.51:984058"
INDEX 00 10:48:54
INDEX 01 10:51:49

TRACK 23 AUDIO
TITLE "2020.02.06-06:10.43:544192"
INDEX 00 10:57:57
INDEX 01 11:43:16

TRACK 24 AUDIO
TITLE "2020.02.06-06:11.22:084485"
INDEX 00 11:52:63
INDEX 01 12:21:57

TRACK 25 AUDIO
TITLE "2020.02.06-06:11.33:844083"
INDEX 00 12:29:69
INDEX 01 12:33:39

TRACK 26 AUDIO
TITLE "2020.02.06-06:11.37:466841"
INDEX 00 12:36:45
INDEX 01 12:37:11

TRACK 27 AUDIO
TITLE "2020.02.06-06:12.25:885616"
INDEX 00 12:45:20
INDEX 01 13:25:42

TRACK 28 AUDIO
TITLE "2020.02.06-06:12.38:986120"
INDEX 00 13:33:24
INDEX 01 13:38:50

TRACK 29 AUDIO
TITLE "2020.02.06-06:12.56:464127"
INDEX 00 13:46:30
INDEX 01 13:56:10

TRACK 30 AUDIO
TITLE "2020.02.06-06:13.00:544015"
INDEX 00 13:58:48
INDEX 01 14:00:16

TRACK 31 AUDIO
TITLE "2020.02.06-06:13.09:585806"
INDEX 00 14:02:37
INDEX 01 14:09:20

TRACK 32 AUDIO
TITLE "2020.02.06-06:13.25:244107"
INDEX 00 14:12:00
INDEX 01 14:24:69

TRACK 33 AUDIO
TITLE "2020.02.06-06:13.32:987849"
INDEX 00 14:32:27
INDEX 01 14:32:50

TRACK 34 AUDIO
TITLE "2020.02.06-06:13.39:504012"
INDEX 00 14:39:03
INDEX 01 14:39:13

TRACK 35 AUDIO
TITLE "2020.02.06-06:14.27:127094"
INDEX 00 15:08:34
INDEX 01 15:26:60

TRACK 36 AUDIO
TITLE "2020.02.06-06:14.35:963984"
INDEX 00 15:31:27
INDEX 01 15:35:48

TRACK 37 AUDIO
TITLE "2020.02.06-06:14.49:763989"
INDEX 00 15:42:19
INDEX 01 15:49:33

TRACK 38 AUDIO
TITLE "2020.02.06-06:14.52:504024"
INDEX 00 15:51:64
INDEX 01 15:52:13

TRACK 39 AUDIO
TITLE "2020.02.06-06:15.28:264094"
INDEX 00 15:57:37
INDEX 01 16:27:70

TRACK 40 AUDIO
TITLE "2020.02.06-06:15.53:384060"
INDEX 00 16:35:46
INDEX 01 16:53:04

TRACK 41 AUDIO
TITLE "2020.02.06-06:16.08:384094"
INDEX 00 17:03:21
INDEX 01 17:08:04

TRACK 42 AUDIO
TITLE "2020.02.06-06:16.35:743984"
INDEX 00 17:18:46
INDEX 01 17:35:31

TRACK 43 AUDIO
TITLE "2020.02.06-06:16.38:946594"
INDEX 00 17:37:55
INDEX 01 17:38:47

TRACK 44 AUDIO
TITLE "2020.02.06-06:17.04:844141"
INDEX 00 17:48:56
INDEX 01 18:04:39

TRACK 45 AUDIO
TITLE "2020.02.06-06:17.28:224232"
INDEX 00 18:10:49
INDEX 01 18:27:67

TRACK 46 AUDIO
TITLE "2020.02.06-06:17.49:604311"
INDEX 00 18:35:73
INDEX 01 18:49:21

TRACK 47 AUDIO
TITLE "2020.02.06-06:17.51:864200"
INDEX 00 18:50:34
INDEX 01 18:51:40

TRACK 48 AUDIO
TITLE "2020.02.06-06:17.57:124161"
INDEX 00 18:56:54
INDEX 01 18:56:60

TRACK 49 AUDIO
TITLE "2020.02.06-06:19.45:164108"
INDEX 00 19:03:09
INDEX 01 20:44:63

TRACK 50 AUDIO
TITLE "2020.02.06-06:19.50:083958"
INDEX 00 20:49:46
INDEX 01 20:49:57

TRACK 51 AUDIO
TITLE "2020.02.06-06:20.08:484101"
INDEX 00 21:08:03
INDEX 01 21:08:12

TRACK 52 AUDIO
TITLE "2020.02.06-06:20.17:369392"
INDEX 00 21:15:36
INDEX 01 21:17:03

TRACK 53 AUDIO
TITLE "2020.02.06-06:20.30:904002"
INDEX 00 21:28:11
INDEX 01 21:30:43

TRACK 54 AUDIO
TITLE "2020.02.06-06:20.37:744110"
INDEX 00 21:37:16
INDEX 01 21:37:31

TRACK 55 AUDIO
TITLE "2020.02.06-06:20.46:384092"
INDEX 00 21:45:58
INDEX 01 21:46:04

TRACK 56 AUDIO
TITLE "2020.02.06-06:20.50:284989"
INDEX 00 21:49:42
INDEX 01 21:49:72

TRACK 57 AUDIO
TITLE "2020.02.06-06:21.03:344077"
INDEX 00 22:00:22
INDEX 01 22:03:01

TRACK 58 AUDIO
TITLE "2020.02.06-06:21.12:004153"
INDEX 00 22:11:46
INDEX 01 22:11:51

TRACK 59 AUDIO
TITLE "2020.02.06-06:21.31:063990"
INDEX 00 22:18:58
INDEX 01 22:30:55

TRACK 60 AUDIO
TITLE "2020.02.06-06:21.34:724147"
INDEX 00 22:34:04
INDEX 01 22:34:30

TRACK 61 AUDIO
TITLE "2020.02.06-06:21.40:926751"
INDEX 00 22:38:01
INDEX 01 22:40:45

TRACK 62 AUDIO
TITLE "2020.02.06-06:21.45:743962"
INDEX 00 22:44:24
INDEX 01 22:45:31

TRACK 63 AUDIO
TITLE "2020.02.06-06:22.18:544039"
INDEX 00 22:53:06
INDEX 01 23:18:16

TRACK 64 AUDIO
TITLE "2020.02.06-06:22.31:344032"
INDEX 00 23:27:36
INDEX 01 23:31:01

TRACK 65 AUDIO
TITLE "2020.02.06-06:22.56:327896"
INDEX 00 23:41:51
INDEX 01 23:56:00

TRACK 66 AUDIO
TITLE "2020.02.06-06:23.02:463977"
INDEX 00 24:01:66
INDEX 01 24:02:10

TRACK 67 AUDIO
TITLE "2020.02.06-06:24.10:845599"
INDEX 00 24:27:67
INDEX 01 25:10:39

TRACK 68 AUDIO
TITLE "2020.02.06-06:24.16:208433"
INDEX 00 25:13:48
INDEX 01 25:15:66

TRACK 69 AUDIO
TITLE "2020.02.06-06:24.26:664026"
INDEX 00 25:20:74
INDEX 01 25:26:25

TRACK 70 AUDIO
TITLE "2020.02.06-06:24.32:104109"
INDEX 00 25:28:61
INDEX 01 25:31:58

TRACK 71 AUDIO
TITLE "2020.02.06-06:24.43:784054"
INDEX 00 25:38:16
INDEX 01 25:43:34

TRACK 72 AUDIO
TITLE "2020.02.06-06:24.56:964393"
INDEX 00 25:49:49
INDEX 01 25:56:48

TRACK 73 AUDIO
TITLE "2020.02.06-06:25.13:928495"
INDEX 00 26:01:61
INDEX 01 26:13:45

TRACK 74 AUDIO
TITLE "2020.02.06-06:25.27:864042"
INDEX 00 26:23:74
INDEX 01 26:27:40

TRACK 75 AUDIO
TITLE "2020.02.06-06:25.56:864266"
INDEX 00 26:33:72
INDEX 01 26:56:40

TRACK 76 AUDIO
TITLE "2020.02.06-06:26.01:945072"
INDEX 00 26:59:01
INDEX 01 27:01:46

TRACK 77 AUDIO
TITLE "2020.02.06-06:26.11:324073"
INDEX 00 27:08:30
INDEX 01 27:11:00

TRACK 78 AUDIO
TITLE "2020.02.06-06:26.16:767329"
INDEX 00 27:15:28
INDEX 01 27:16:33

TRACK 79 AUDIO
TITLE "2020.02.06-06:26.28:364119"
INDEX 00 27:20:17
INDEX 01 27:28:03

TRACK 80 AUDIO
TITLE "2020.02.06-06:26.39:507549"
INDEX 00 27:38:70
INDEX 01 27:39:14

TRACK 81 AUDIO
TITLE "2020.02.06-06:26.45:806276"
INDEX 00 27:45:27
INDEX 01 27:45:36

TRACK 82 AUDIO
TITLE "2020.02.06-06:26.49:624151"
INDEX 00 27:48:33
INDEX 01 27:49:22

TRACK 83 AUDIO
TITLE "2020.02.06-06:26.57:524125"
INDEX 00 27:57:01
INDEX 01 27:57:15

TRACK 84 AUDIO
TITLE "2020.02.06-06:27.02:344095"
INDEX 00 28:01:69
INDEX 01 28:02:01

TRACK 85 AUDIO
TITLE "2020.02.06-06:27.19:704088"
INDEX 00 28:19:15
INDEX 01 28:19:28

TRACK 86 AUDIO
TITLE "2020.02.06-06:27.36:683986"
INDEX 00 28:34:52
INDEX 01 28:36:27

TRACK 87 AUDIO
TITLE "2020.02.06-06:27.41:684090"
INDEX 00 28:39:06
INDEX 01 28:41:27

TRACK 88 AUDIO
TITLE "2020.02.06-06:28.09:803951"
INDEX 00 28:56:33
INDEX 01 29:09:36

TRACK 89 AUDIO
TITLE "2020.02.06-06:28.38:266668"
INDEX 00 29:22:37
INDEX 01 29:37:71

TRACK 90 AUDIO
TITLE "2020.02.06-06:29.29:424171"
INDEX 00 29:45:02
INDEX 01 30:29:07

TRACK 91 AUDIO
TITLE "2020.02.06-06:30.32:424568"
INDEX 00 30:47:07
INDEX 01 31:32:07

TRACK 92 AUDIO
TITLE "2020.02.06-06:30.34:784228"
INDEX 00 31:33:52
INDEX 01 31:34:34

TRACK 93 AUDIO
TITLE "2020.02.06-06:30.55:944066"
INDEX 00 31:55:28
INDEX 01 31:55:46

TRACK 94 AUDIO
TITLE "2020.02.06-06:31.31:285453"
INDEX 00 32:29:58
INDEX 01 32:30:72

TRACK 95 AUDIO
TITLE "2020.02.06-06:31.34:824059"
INDEX 00 32:34:30
INDEX 01 32:34:37

TRACK 96 AUDIO
TITLE "2020.02.06-06:31.43:744068"
INDEX 00 32:43:22
INDEX 01 32:43:31

TRACK 97 AUDIO
TITLE "2020.02.06-06:31.50:747570"
INDEX 00 32:50:10
INDEX 01 32:50:32

TRACK 98 AUDIO
TITLE "2020.02.06-06:32.07:124024"
INDEX 00 33:03:51
INDEX 01 33:06:60

TRACK 99 AUDIO
TITLE "2020.02.06-06:32.10:948437"
INDEX 00 33:09:66
INDEX 01 33:10:47

TRACK 100 AUDIO
TITLE "2020.02.06-06:32.23:605635"
INDEX 00 33:22:36
INDEX 01 33:23:21

TRACK 101 AUDIO
TITLE "2020.02.06-06:32.26:723983"
INDEX 00 33:26:08
INDEX 01 33:26:30

TRACK 102 AUDIO
TITLE "2020.02.06-06:32.39:784000"
INDEX 00 33:33:01
INDEX 01 33:39:34

TRACK 103 AUDIO
TITLE "2020.02.06-06:32.46:785558"
INDEX 00 33:46:07
INDEX 01 33:46:35

TRACK 104 AUDIO
TITLE "2020.02.06-06:32.51:844081"
INDEX 00 33:50:50
INDEX 01 33:51:39

TRACK 105 AUDIO
TITLE "2020.02.06-06:33.19:824102"
INDEX 00 34:18:67
INDEX 01 34:19:37

TRACK 106 AUDIO
TITLE "2020.02.06-06:33.35:364091"
INDEX 00 34:34:67
INDEX 01 34:35:03

TRACK 107 AUDIO
TITLE "2020.02.06-06:33.49:104078"
INDEX 00 34:46:45
INDEX 01 34:48:58

TRACK 108 AUDIO
TITLE "2020.02.06-06:33.59:404155"
INDEX 00 34:57:72
INDEX 01 34:59:06

TRACK 109 AUDIO
TITLE "2020.02.06-06:34.05:464014"
INDEX 00 35:04:72
INDEX 01 35:05:10

TRACK 110 AUDIO
TITLE "2020.02.06-06:34.30:964046"
INDEX 00 35:30:33
INDEX 01 35:30:48

TRACK 111 AUDIO
TITLE "2020.02.06-06:34.51:244891"
INDEX 00 35:36:57
INDEX 01 35:50:69

TRACK 112 AUDIO
TITLE "2020.02.06-06:34.54:506211"
INDEX 00 35:54:03
INDEX 01 35:54:14

TRACK 113 AUDIO
TITLE "2020.02.06-06:35.03:844080"
INDEX 00 35:56:38
INDEX 01 36:03:39

TRACK 114 AUDIO
TITLE "2020.02.06-06:35.14:544054"
INDEX 00 36:13:72
INDEX 01 36:14:16

TRACK 115 AUDIO
TITLE "2020.02.06-06:35.46:548461"
INDEX 00 36:31:22
INDEX 01 36:46:17

TRACK 116 AUDIO
TITLE "2020.02.06-06:36.11:864192"
INDEX 00 36:51:51
INDEX 01 37:11:40

TRACK 117 AUDIO
TITLE "2020.02.06-06:36.19:804131"
INDEX 00 37:16:46
INDEX 01 37:19:36

TRACK 118 AUDIO
TITLE "2020.02.06-06:36.26:728606"
INDEX 00 37:25:46
INDEX 01 37:26:30

TRACK 119 AUDIO
TITLE "2020.02.06-06:36.36:804409"
INDEX 00 37:32:47
INDEX 01 37:36:36

TRACK 120 AUDIO
TITLE "2020.02.06-06:36.41:309029"
INDEX 00 37:40:46
INDEX 01 37:40:74

TRACK 121 AUDIO
TITLE "2020.02.06-06:36.50:246984"
INDEX 00 37:43:27
INDEX 01 37:49:69

TRACK 122 AUDIO
TITLE "2020.02.06-06:36.56:964023"
INDEX 00 37:55:71
INDEX 01 37:56:48

TRACK 123 AUDIO
TITLE "2020.02.06-06:37.25:544129"
INDEX 00 38:03:45
INDEX 01 38:25:16

TRACK 124 AUDIO
TITLE "2020.02.06-06:37.30:984140"
INDEX 00 38:26:45
INDEX 01 38:30:49

TRACK 125 AUDIO
TITLE "2020.02.06-06:37.35:124194"
INDEX 00 38:34:36
INDEX 01 38:34:60

TRACK 126 AUDIO
TITLE "2020.02.06-06:37.59:024160"
INDEX 00 38:45:37
INDEX 01 38:58:52

TRACK 127 AUDIO
TITLE "2020.02.06-06:38.06:364078"
INDEX 00 39:05:64
INDEX 01 39:06:03

TRACK 128 AUDIO
TITLE "2020.02.06-06:38.13:364087"
INDEX 00 39:12:72
INDEX 01 39:13:03

TRACK 129 AUDIO
TITLE "2020.02.06-06:38.19:564133"
INDEX 00 39:18:54
INDEX 01 39:19:18

TRACK 130 AUDIO
TITLE "2020.02.06-06:38.56:884054"
INDEX 00 39:44:40
INDEX 01 39:56:42

TRACK 131 AUDIO
TITLE "2020.02.06-06:39.01:464058"
INDEX 00 39:59:39
INDEX 01 40:01:10

TRACK 132 AUDIO
TITLE "2020.02.06-06:39.39:464045"
INDEX 00 40:07:07
INDEX 01 40:39:10

TRACK 133 AUDIO
TITLE "2020.02.06-06:40.09:208290"
INDEX 00 41:05:66
INDEX 01 41:08:66

TRACK 134 AUDIO
TITLE "2020.02.06-06:40.13:824125"
INDEX 00 41:13:27
INDEX 01 41:13:37

TRACK 135 AUDIO
TITLE "2020.02.06-06:40.26:464126"
INDEX 00 41:24:46
INDEX 01 41:26:10

TRACK 136 AUDIO
TITLE "2020.02.06-06:40.42:248659"
INDEX 00 41:39:73
INDEX 01 41:41:69

TRACK 137 AUDIO
TITLE "2020.02.06-06:40.46:724125"
INDEX 00 41:46:02
INDEX 01 41:46:30

TRACK 138 AUDIO
TITLE "2020.02.06-06:40.54:063971"
INDEX 00 41:52:49
INDEX 01 41:53:55

TRACK 139 AUDIO
TITLE "2020.02.06-06:40.57:928477"
INDEX 00 41:57:40
INDEX 01 41:57:45

TRACK 140 AUDIO
TITLE "2020.02.06-06:41.21:024374"
INDEX 00 42:01:00
INDEX 01 42:20:52

TRACK 141 AUDIO
TITLE "2020.02.06-06:41.25:544013"
INDEX 00 42:23:21
INDEX 01 42:25:16

TRACK 142 AUDIO
TITLE "2020.02.06-06:41.29:706003"
INDEX 00 42:28:52
INDEX 01 42:29:29

TRACK 143 AUDIO
TITLE "2020.02.06-06:41.33:604083"
INDEX 00 42:32:68
INDEX 01 42:33:21

TRACK 144 AUDIO
TITLE "2020.02.06-06:41.43:684203"
INDEX 00 42:41:54
INDEX 01 42:43:27

TRACK 145 AUDIO
TITLE "2020.02.06-06:42.00:944210"
INDEX 00 42:57:28
INDEX 01 43:00:46

TRACK 146 AUDIO
TITLE "2020.02.06-06:42.10:723999"
INDEX 00 43:03:55
INDEX 01 43:10:30

TRACK 147 AUDIO
TITLE "2020.02.06-06:42.21:124195"
INDEX 00 43:11:73
INDEX 01 43:20:60

TRACK 148 AUDIO
TITLE "2020.02.06-06:42.39:424101"
INDEX 00 43:38:52
INDEX 01 43:39:07

TRACK 149 AUDIO
TITLE "2020.02.06-06:42.43:144069"
INDEX 00 43:42:51
INDEX 01 43:42:61

TRACK 150 AUDIO
TITLE "2020.02.06-06:42.50:345916"
INDEX 00 43:49:25
INDEX 01 43:50:02

TRACK 151 AUDIO
TITLE "2020.02.06-06:43.18:004198"
INDEX 00 44:10:06
INDEX 01 44:17:51

TRACK 152 AUDIO
TITLE "2020.02.06-06:43.21:564041"
INDEX 00 44:21:09
INDEX 01 44:21:18

TRACK 153 AUDIO
TITLE "2020.02.06-06:43.32:084113"
INDEX 00 44:31:36
INDEX 01 44:31:57

TRACK 154 AUDIO
TITLE "2020.02.06-06:43.56:884616"
INDEX 00 44:56:27
INDEX 01 44:56:42

TRACK 155 AUDIO
TITLE "2020.02.06-06:44.29:906866"
INDEX 00 45:03:54
INDEX 01 45:29:44

TRACK 156 AUDIO
TITLE "2020.02.06-06:44.50:504007"
INDEX 00 45:41:48
INDEX 01 45:50:13

TRACK 157 AUDIO
TITLE "2020.02.06-06:45.07:204131"
INDEX 00 45:57:60
INDEX 01 46:06:66

TRACK 158 AUDIO
TITLE "2020.02.06-06:45.18:504167"
INDEX 00 46:17:69
INDEX 01 46:18:13

TRACK 159 AUDIO
TITLE "2020.02.06-06:45.58:784056"
INDEX 00 46:27:30
INDEX 01 46:58:34

TRACK 160 AUDIO
TITLE "2020.02.06-06:46.02:227699"
INDEX 00 47:01:52
INDEX 01 47:01:68

TRACK 161 AUDIO
TITLE "2020.02.06-06:46.13:524102"
INDEX 00 47:09:72
INDEX 01 47:13:15

TRACK 162 AUDIO
TITLE "2020.02.06-06:46.32:064114"
INDEX 00 47:26:18
INDEX 01 47:31:55

TRACK 163 AUDIO
TITLE "2020.02.06-06:46.40:749037"
INDEX 00 47:37:16
INDEX 01 47:40:32

TRACK 164 AUDIO
TITLE "2020.02.06-06:47.25:604086"
INDEX 00 47:52:32
INDEX 01 48:25:21

TRACK 165 AUDIO
TITLE "2020.02.06-06:47.42:364144"
INDEX 00 48:37:52
INDEX 01 48:42:03

TRACK 166 AUDIO
TITLE "2020.02.06-06:47.49:144054"
INDEX 00 48:48:13
INDEX 01 48:48:61

TRACK 167 AUDIO
TITLE "2020.02.06-06:48.06:644308"
INDEX 00 48:56:69
INDEX 01 49:06:24

TRACK 168 AUDIO
TITLE "2020.02.06-06:48.11:664081"
INDEX 00 49:11:00
INDEX 01 49:11:25

TRACK 169 AUDIO
TITLE "2020.02.06-06:48.41:525152"
INDEX 00 49:17:63
INDEX 01 49:41:15

TRACK 170 AUDIO
TITLE "2020.02.06-06:48.49:844234"
INDEX 00 49:49:12
INDEX 01 49:49:39

TRACK 171 AUDIO
TITLE "2020.02.06-06:49.15:124057"
INDEX 00 50:11:55
INDEX 01 50:14:60

TRACK 172 AUDIO
TITLE "2020.02.06-06:49.23:988231"
INDEX 00 50:20:58
INDEX 01 50:23:50

TRACK 173 AUDIO
TITLE "2020.02.06-06:49.47:564113"
INDEX 00 50:31:66
INDEX 01 50:47:18

TRACK 174 AUDIO
TITLE "2020.02.06-06:50.27:488839"
INDEX 00 50:53:61
INDEX 01 51:27:12

TRACK 175 AUDIO
TITLE "2020.02.06-06:50.33:604065"
INDEX 00 51:33:15
INDEX 01 51:33:21

TRACK 176 AUDIO
TITLE "2020.02.06-06:50.47:304201"
INDEX 00 51:46:30
INDEX 01 51:46:73

TRACK 177 AUDIO
TITLE "2020.02.06-06:50.55:744009"
INDEX 00 51:54:07
INDEX 01 51:55:31

TRACK 178 AUDIO
TITLE "2020.02.06-06:51.00:024177"
INDEX 00 51:58:40
INDEX 01 51:59:52

TRACK 179 AUDIO
TITLE "2020.02.06-06:51.07:806459"
INDEX 00 52:02:25
INDEX 01 52:07:36

TRACK 180 AUDIO
TITLE "2020.02.06-06:51.39:984060"
INDEX 00 52:12:47
INDEX 01 52:39:49

TRACK 181 AUDIO
TITLE "2020.02.06-06:51.46:665140"
INDEX 00 52:45:42
INDEX 01 52:46:25

TRACK 182 AUDIO
TITLE "2020.02.06-06:51.51:944076"
INDEX 00 52:51:13
INDEX 01 52:51:46

TRACK 183 AUDIO
TITLE "2020.02.06-06:52.11:404235"
INDEX 00 53:01:30
INDEX 01 53:11:06

TRACK 184 AUDIO
TITLE "2020.02.06-06:52.27:564136"
INDEX 00 53:25:18
INDEX 01 53:27:18

TRACK 185 AUDIO
TITLE "2020.02.06-06:52.34:483984"
INDEX 00 53:34:03
INDEX 01 53:34:12

TRACK 186 AUDIO
TITLE "2020.02.06-06:53.00:443955"
INDEX 00 53:56:09
INDEX 01 54:00:09

TRACK 187 AUDIO
TITLE "2020.02.06-06:53.13:564091"
INDEX 00 54:08:67
INDEX 01 54:13:18

TRACK 188 AUDIO
TITLE "2020.02.06-06:54.23:464053"
INDEX 00 54:19:64
INDEX 01 55:23:10

TRACK 189 AUDIO
TITLE "2020.02.06-06:54.55:543987"
INDEX 00 55:30:25
INDEX 01 55:55:16

TRACK 190 AUDIO
TITLE "2020.02.06-06:55.04:944086"
INDEX 00 56:04:39
INDEX 01 56:04:46

TRACK 191 AUDIO
TITLE "2020.02.06-06:55.09:884087"
INDEX 00 56:09:39
INDEX 01 56:09:42

TRACK 192 AUDIO
TITLE "2020.02.06-06:56.29:544084"
INDEX 00 56:18:48
INDEX 01 57:29:16

TRACK 193 AUDIO
TITLE "2020.02.06-06:56.36:965012"
INDEX 00 57:36:06
INDEX 01 57:36:48

TRACK 194 AUDIO
TITLE "2020.02.06-06:56.51:788993"
INDEX 00 57:49:42
INDEX 01 57:51:35

TRACK 195 AUDIO
TITLE "2020.02.06-06:57.12:484051"
INDEX 00 57:59:33
INDEX 01 58:12:12

TRACK 196 AUDIO
TITLE "2020.02.06-06:57.14:924149"
INDEX 00 58:13:33
INDEX 01 58:14:45

TRACK 197 AUDIO
TITLE "2020.02.06-06:57.25:943973"
INDEX 00 58:16:07
INDEX 01 58:25:46

TRACK 198 AUDIO
TITLE "2020.02.06-06:57.33:024132"
INDEX 00 58:31:43
INDEX 01 58:32:52

TRACK 199 AUDIO
TITLE "2020.02.06-06:57.44:184272"
INDEX 00 58:43:46
INDEX 01 58:43:64

TRACK 200 AUDIO
TITLE "2020.02.06-06:58.02:269632"
INDEX 00 58:51:51
INDEX 01 59:01:71

TRACK 201 AUDIO
TITLE "2020.02.06-06:58.27:465235"
INDEX 00 59:22:20
INDEX 01 59:27:10

TRACK 202 AUDIO
TITLE "2020.02.06-06:59.03:564074"
INDEX 00 59:38:37
INDEX 01 60:03:18

TRACK 203 AUDIO
TITLE "2020.02.06-06:59.08:284056"
INDEX 00 60:07:03
INDEX 01 60:07:72

TRACK 204 AUDIO
TITLE "2020.02.06-06:59.55:827796"
INDEX 00 60:12:07
INDEX 01 60:55:38

TRACK 205 AUDIO
TITLE "2020.02.06-07:00.05:124223"
INDEX 00 61:03:00
INDEX 01 61:04:60

TRACK 206 AUDIO
TITLE "2020.02.06-07:00.15:623988"
INDEX 00 61:14:09
INDEX 01 61:15:22

TRACK 207 AUDIO
TITLE "2020.02.06-07:00.21:684128"
INDEX 00 61:20:70
INDEX 01 61:21:27

TRACK 208 AUDIO
TITLE "2020.02.06-07:00.34:944087"
INDEX 00 61:33:64
INDEX 01 61:34:46

TRACK 209 AUDIO
TITLE "2020.02.06-07:01.06:884059"
INDEX 00 61:56:25
INDEX 01 62:06:42

TRACK 210 AUDIO
TITLE "2020.02.06-07:01.09:946206"
INDEX 00 62:09:06
INDEX 01 62:09:47

TRACK 211 AUDIO
TITLE "2020.02.06-07:01.17:044046"
INDEX 00 62:16:20
INDEX 01 62:16:54

